<?xml version="1.0" standalone="no"?>
<!DOCTYPE svg PUBLIC "-//W3C//DTD SVG 20010904//EN"
 "http://www.w3.org/TR/2001/REC-SVG-20010904/DTD/svg10.dtd">
<svg version="1.0" xmlns="http://www.w3.org/2000/svg"
 width="293.000000pt" height="293.000000pt" viewBox="0 0 293.000000 293.000000"
 preserveAspectRatio="xMidYMid meet">
<metadata>
Created by potrace 1.14, written by Peter Selinger 2001-2017
</metadata>
<g transform="translate(0.000000,293.000000) scale(0.100000,-0.100000)"
fill="#000000" stroke="none">
<path d="M0 1465 l0 -1255 1465 0 1465 0 0 1255 0 1255 -1465 0 -1465 0 0
-1255z m1853 645 l378 0 -3 -117 -3 -118 -203 -5 -203 -5 1 -631 c0 -348 -3
-639 -6 -648 -5 -14 -27 -16 -160 -16 l-154 0 0 650 0 650 -207 2 -208 3 -3
114 c-2 85 1 117 10 123 7 5 94 7 198 4 102 -3 355 -6 563 -6z"/>
</g>
</svg>
